<svg xmlns="http://www.w3.org/2000/svg" viewBox="0 0 512 512" width="100%" height="100%">
  <rect width="512" height="512" rx="100" fill="#0F172A" />

  <g transform="translate(8, -8)">

    <g fill="none" stroke="#FFFFFF" stroke-width="20" stroke-linejoin="round" stroke-linecap="round">
        <path d="M 80,140 C 120,130 170,140 210,170 V 390 C 170,360 120,350 80,360 Z" />

        <path d="M 110,110 C 150,100 200,110 240,140 V 360 C 200,330 150,320 110,330 Z" fill="#0F172A" />

        <path d="M 140,180 Q 175,175 205,195" />
        <path d="M 140,230 Q 175,225 205,245" />
        <path d="M 140,280 Q 175,275 205,295" />
    </g>

    <path d="M 140,330 V 430 L 165,405 L 190,430 V 335" fill="#FFFFFF" />

    <g>
        <path d="M 270,110 H 370 V 220 H 270 Z" fill="#FFFFFF" />
        <path d="M 270,195 H 370" stroke="#0F172A" stroke-width="16" />

        <path d="M 265,240 H 375 V 255 H 265 Z" fill="#FFFFFF" />

        <path d="M 250,275 H 390 C 410,325 400,360 370,390 L 320,480 L 270,390 C 240,360 230,325 250,275 Z" fill="#FFFFFF" />

        <circle cx="320" cy="340" r="16" fill="#0F172A" />
        <path d="M 314,340 H 326 V 480 H 314 Z" fill="#0F172A" />
    </g>

  </g>
</svg>
